<?xml version="1.0" encoding="utf-8"?>
<!-- Generator: Adobe Illustrator 28.0.0, SVG Export Plug-In . SVG Version: 6.00 Build 0)  -->
<svg version="1.1" id="Layer_1" xmlns="http://www.w3.org/2000/svg" xmlns:xlink="http://www.w3.org/1999/xlink" x="0px" y="0px"
	 viewBox="0 0 1080 1080" style="enable-background:new 0 0 1080 1080;" xml:space="preserve">
<g>
	<path d="M512.94,759.34c-0.95-0.33-1.87-0.79-2.85-0.98c-9.87-1.95-17.73-9.56-15.45-23.37c2.08-12.59,12.08-21.11,25.01-21.67
		c4.34-0.19,8.6,0.19,12.66,1.91c7.96,3.38,12.27,10.87,11.32,19.67c-1.37,12.65-8.76,20.79-21.3,23.49
		c-1.09,0.23-2.14,0.63-3.2,0.95C517.06,759.34,515,759.34,512.94,759.34z M520.56,723.81c-3.33,0.02-6,0.83-8.28,2.88
		c-4.58,4.12-6,9.35-4.78,15.25c0.63,3.06,2.81,4.99,5.76,5.98c5.09,1.71,11.05-0.12,14.37-4.37c1.96-2.51,2.92-5.41,3.23-8.53
		C531.53,728.02,527.61,723.77,520.56,723.81z"/>
	<path d="M39.07,756.53c0.39-0.8,0.96-1.57,1.13-2.42c2.5-12.27,4.95-24.56,7.41-36.84c0.18-0.91,0.41-1.8,0.67-2.88
		c11.43,0,22.8,0,34.52,0c-0.66,3.21-1.28,6.26-1.94,9.47c-7.37,0-14.55,0-22.03,0c-0.48,2.36-0.93,4.58-1.46,7.2
		c6.61,0,12.83,0,19.43,0c-0.63,3.28-1.18,6.17-1.79,9.37c-6.52,0-12.94,0-19.51,0c-0.52,2.66-0.99,5.02-1.54,7.81
		c7.72,0,15.14,0,22.97,0c-0.74,3.51-1.39,6.58-2.11,9.99c-12.01,0-23.88,0-35.75,0C39.07,757.65,39.07,757.09,39.07,756.53z"/>
	<path d="M609.07,759.34c-1.43-0.37-2.84-0.79-4.28-1.1c-3.58-0.78-7.06-1.77-10.45-4.07c1.6-3.04,3.19-6.05,4.88-9.27
		c0.97,0.48,1.77,0.91,2.59,1.29c4.84,2.23,9.82,3.64,15.21,2.62c0.37-0.07,0.75-0.1,1.1-0.21c1.89-0.57,3.23-1.85,3.17-3.15
		c-0.08-1.69-1.42-2.36-2.73-2.85c-1.75-0.65-3.57-1.11-5.35-1.67c-1.96-0.62-3.98-1.11-5.85-1.93c-7.29-3.19-9.52-10.32-5.45-17.19
		c2-3.38,4.99-5.58,8.64-6.79c8.23-2.74,16.38-2.35,24.4,0.93c0.67,0.27,1.27,0.72,2.12,1.21c-1.52,3.1-2.97,6.08-4.49,9.18
		c-0.98-0.46-1.73-0.8-2.48-1.15c-3.93-1.81-8.07-2.39-12.32-1.77c-1.33,0.19-2.74,0.74-3.83,1.53c-1.86,1.35-1.69,3.45,0.35,4.54
		c1.46,0.79,3.12,1.24,4.71,1.75c2.49,0.8,5.08,1.33,7.49,2.31c7.56,3.06,9.76,10.33,5.34,17.24c-2.7,4.21-6.85,6.19-11.51,7.4
		c-1.33,0.34-2.64,0.77-3.96,1.16C613.94,759.34,611.5,759.34,609.07,759.34z"/>
	<path d="M111.03,759.34c-2.35-0.56-4.71-1.1-7.06-1.7c-2.72-0.69-5.35-1.63-7.98-3.48c1.59-3.04,3.17-6.05,4.85-9.24
		c0.97,0.46,1.78,0.85,2.59,1.23c4.83,2.25,9.8,3.66,15.2,2.65c0.28-0.05,0.56-0.07,0.83-0.14c2.16-0.57,3.45-1.74,3.42-3.2
		c-0.04-1.87-1.52-2.48-2.93-2.96c-2.48-0.84-5.02-1.46-7.5-2.28c-1.68-0.56-3.37-1.16-4.93-1.98c-4.53-2.37-6.39-6.08-5.72-11.14
		c0.67-5.03,3.33-8.76,7.85-10.9c2.58-1.22,5.43-2.11,8.24-2.54c6-0.93,11.95-0.44,17.65,1.83c1.02,0.41,1.99,0.95,3.21,1.55
		c-1.56,3.17-3.02,6.15-4.46,9.1c-2.4-0.85-4.53-1.92-6.78-2.3c-2.73-0.46-5.57-0.5-8.35-0.39c-1.22,0.05-2.55,0.7-3.57,1.44
		c-1.83,1.32-1.7,3.51,0.28,4.56c1.55,0.82,3.3,1.28,4.98,1.83c2.31,0.74,4.7,1.26,6.95,2.15c8.35,3.28,10.42,12.02,4.54,18.89
		c-2.8,3.27-6.51,4.92-10.59,5.91c-1.34,0.32-2.66,0.75-3.99,1.12C115.52,759.34,113.27,759.34,111.03,759.34z"/>
	<path d="M175.67,759.34c-1.15-0.35-2.27-0.79-3.44-1.05c-11.3-2.5-17.28-11.45-15.41-22.94c2.21-13.57,12.63-21.27,25.28-22.03
		c4.44-0.26,8.78,0.2,12.89,2.09c2.87,1.32,5.3,3.13,7.08,6.14c-1.48,1.23-2.96,2.47-4.46,3.68c-1.44,1.16-2.91,2.28-4.27,3.34
		c-0.41-0.18-0.63-0.21-0.73-0.33c-3.31-4.41-7.88-5.21-12.83-4.05c-5.29,1.24-8.53,4.86-9.82,10.1c-0.42,1.7-0.59,3.51-0.53,5.26
		c0.16,4.52,2.96,7.68,7.41,8.62c4.51,0.95,8.53-0.07,12.05-3.04c0.57-0.48,1.11-0.98,1.71-1.53c0.36,0.25,0.69,0.42,0.95,0.67
		c2.13,2.1,4.24,4.21,6.47,6.43c-3.06,4.03-7.12,6.29-11.86,7.49c-1.44,0.37-2.87,0.77-4.3,1.15
		C179.79,759.34,177.73,759.34,175.67,759.34z"/>
	<path d="M589,493.71c-2.42,3.22-4.59,6.1-6.93,9.22c-33.79-25.01-67.32-49.83-101.13-74.85c-37.46,33.32-74.33,67.06-111.46,100.44
		c-1.85-0.97-6.31-5.8-7.85-8.52c52.54-47.55,105.41-94.81,157.91-143.22c-18.02-12.31-35.75-24.43-53.79-36.76
		c-48.35,43.11-96.67,86.2-145.22,129.5c-3.65-4.06-7.12-7.91-10.68-11.86c0.46-0.5,0.73-0.86,1.06-1.16
		c25.59-22.8,51.19-45.59,76.77-68.4c23.9-21.31,47.79-42.65,71.68-63.98c0.77-0.69,1.54-1.37,2.32-2.04
		c2.08-1.8,3.56-1.89,5.9-0.29c19.95,13.62,39.9,27.25,59.85,40.88c1.31,0.89,2.62,1.78,4.24,2.87
		c15.57-14.35,31.09-28.67,46.91-43.25c63.81,43.32,127.6,86.63,191.69,130.14c-2.21,3.2-4.25,6.16-6.53,9.47
		c-61.45-41.66-122.7-83.2-184.08-124.82c-12.74,11.75-25.3,23.34-38.17,35.21c41.45,28.26,82.57,56.3,123.93,84.5
		c-3.05,4.47-5.93,8.69-9.04,13.25c-42.5-28.77-84.65-57.62-127.04-86.56c-13.21,12.19-26.32,24.28-39.72,36.64
		C522.82,444.71,555.74,469.08,589,493.71z"/>
	<path d="M824.13,577.49c7.68,0,15.05,0,22.67,0c0,24.6,0,49.06,0,73.69c-8.2,0-16.3,0-24.68,0c-0.12-10.81-0.24-21.49-0.37-32.16
		c-0.18-0.04-0.37-0.08-0.55-0.12c-0.52,0.73-1.06,1.45-1.55,2.19c-4.72,7.2-9.45,14.39-14.11,21.63c-0.9,1.4-1.86,2.11-3.6,2.01
		c-2.52-0.15-5.06-0.15-7.58,0c-1.73,0.1-2.71-0.6-3.63-1.97c-4.74-7.07-9.57-14.08-14.38-21.11c-0.41-0.6-0.88-1.15-1.86-1.64
		c-0.01,3.4-0.01,6.8-0.02,10.2c0,3.46,0,6.93,0,10.39c0,3.45,0,6.9,0,10.56c-8.34,0-16.43,0-24.51,0
		c-0.57-2.06-0.8-68.62-0.24-73.6c0.68-0.06,1.4-0.18,2.11-0.18c5.99-0.02,11.99,0.05,17.98-0.05c1.7-0.03,2.69,0.55,3.62,1.95
		c7.62,11.45,15.32,22.84,23,34.25c0.57,0.85,1.17,1.68,1.72,2.47c0.2,0.01,0.29,0.03,0.38,0.02c0.09-0.01,0.19-0.02,0.25-0.07
		c0.14-0.12,0.28-0.26,0.38-0.41C807.49,602.85,815.8,590.19,824.13,577.49z"/>
	<path d="M245.13,622.82c0,3.4,0,6.36,0,9.6c13.5,0,26.84,0,40.35,0c0,6.34,0,12.38,0,18.4c-2.12,0.67-64.6,0.76-67.4,0.09
		c0-24.35,0-48.74,0-73.12c2.1-0.56,59.73-0.79,65.83-0.26c0,6.09,0,12.2,0,18.61c-12.86,0-25.65,0-38.79,0
		c-0.23,3.02-0.18,5.74-0.04,8.72c11.44,0,22.64,0,34.05,0c0,5.99,0,11.74,0,17.91c-3.65,0.13-7.35,0.04-11.05,0.06
		c-3.84,0.02-7.68,0-11.52,0C252.8,622.82,249.07,622.82,245.13,622.82z"/>
	<path d="M906.37,633.02c0,6.25,0,12.05,0,17.79c-2.16,0.66-24.35,0.77-27.33,0.14c0-24.36,0-48.76,0-73.38
		c0.67-0.07,1.38-0.21,2.08-0.21c13.21-0.01,26.41-0.06,39.62,0.03c6.42,0.05,12.66,1.31,18.5,4.03
		c7.91,3.67,13.53,9.43,15.21,18.22c2.12,11.02-1.6,21.06-11.31,27.2c-6.25,3.95-13.2,5.65-20.48,6.05
		c-4.39,0.24-8.8,0.11-13.2,0.14C908.55,633.02,907.64,633.02,906.37,633.02z M906.51,613.55c3.58,0.56,11.57,0.4,14.31-0.27
		c4.04-0.98,6.33-3.72,6.45-7.72c0.12-4.29-1.87-7.24-6-8.32c-4.84-1.27-9.77-0.69-14.76-0.66
		C906.51,602.45,906.51,608.01,906.51,613.55z"/>
	<path d="M628.83,651.17c11.94-24.85,23.63-49.2,35.38-73.66c9,0,17.96,0,27.21,0c11.69,24.34,23.45,48.82,35.37,73.64
		c-9.65,0-18.86,0-28.39,0c-1.72-4.02-3.52-8.21-5.38-12.54c-10.19,0-20.37,0-30.83,0c-1.78,4.13-3.62,8.39-5.42,12.57
		C647.49,651.17,638.45,651.17,628.83,651.17z M669.93,620.11c5.37,0,10.15,0,14.98,0c-0.92-3.86-6.31-16.03-7.67-17.28
		C674.84,608.5,672.46,614.13,669.93,620.11z"/>
	<path d="M353.64,620.29c6.72-14.6,13.19-28.68,19.7-42.82c8.95,0,17.8,0,26.92,0c-0.43,1.05-0.74,1.9-1.12,2.73
		c-10.59,22.81-21.22,45.59-31.73,68.43c-0.98,2.14-2.16,2.8-4.43,2.75c-7.11-0.14-14.23-0.12-21.35-0.01
		c-1.88,0.03-2.79-0.57-3.58-2.29c-10.65-23.09-21.39-46.14-32.09-69.2c-0.34-0.73-0.61-1.5-0.99-2.44c9.87,0,19.48,0,29.44,0
		C340.68,591.44,347.03,605.57,353.64,620.29z"/>
	<path d="M595.31,624.16c5.71,4.64,11.36,9.24,17.34,14.1c-2.08,1.91-3.87,3.78-5.89,5.38c-6.48,5.13-14.05,7.72-22.14,8.8
		c-9.4,1.26-18.66,0.56-27.65-2.66c-6.72-2.41-12.57-6.14-17.36-11.49c-13.16-14.69-12.51-41.05,7.24-54.37
		c6.57-4.43,13.83-6.91,21.66-7.82c9.43-1.1,18.66-0.42,27.62,2.92c5.24,1.95,9.9,4.84,13.91,8.74c0.8,0.77,1.52,1.62,2.47,2.65
		c-5.84,4.75-11.53,9.37-17.28,14.05c-1.26-1.18-2.31-2.24-3.44-3.2c-6.01-5.12-12.93-6.61-20.47-4.6
		c-7.35,1.96-11.58,7-12.65,14.48c-1.2,8.38,1.95,17.33,11.44,20.39c7.28,2.35,14.24,1.44,20.47-3.25
		C592.23,627.05,593.68,625.59,595.31,624.16z"/>
	<path d="M128.35,651.01c0-24.43,0-48.9,0-73.52c9.03,0,17.96,0,27.23,0c0,9.15,0,18.2,0,27.24c0,8.95,0,17.91,0,27.06
		c12.31,0,24.27,0,36.57,0c0.36,6.49,0.1,12.78,0.18,18.99C190.13,651.47,131.79,651.63,128.35,651.01z"/>
	<path d="M448.6,651.19c-8.82,0-17.68,0-26.52,0c-0.61-2.09-0.72-70.82-0.11-73.74c8.85,0,17.72,0,26.57,0
		C449.15,579.61,449.23,648.4,448.6,651.19z"/>
	<path d="M883.06,714.56c-2.91,14.53-5.78,28.9-8.71,43.54c-3.3,0-6.46,0.1-9.61-0.08c-0.67-0.04-1.45-1.04-1.89-1.77
		c-3.86-6.3-7.65-12.64-11.46-18.97c-0.43-0.71-0.88-1.41-1.66-2.66c-2.03,8.04-3.06,15.74-4.96,23.36c-4.02,0-7.91,0-12.21,0
		c2.74-14.65,5.78-29.05,8.67-43.76c3.3,0,6.47-0.1,9.62,0.08c0.69,0.04,1.49,1.01,1.94,1.73c3.83,6.21,7.59,12.46,11.37,18.69
		c0.48,0.78,1,1.54,1.88,2.89c1.62-8.04,3.12-15.49,4.61-22.9C872.72,714.06,879.43,713.94,883.06,714.56z"/>
	<path d="M720.21,714.41c0.83-0.1,1.38-0.21,1.93-0.22c6.09-0.01,12.17-0.07,18.26,0.03c1.95,0.03,3.93,0.3,5.82,0.78
		c8,2.02,11.89,8.17,10.47,16.29c-1.01,5.77-4.2,9.88-9.37,12.53c-0.74,0.38-1.48,0.75-2.39,1.2c2.38,4.24,4.7,8.37,7.29,13
		c-2.53,0.04-4.61,0.09-6.7,0.1c-2.06,0.02-4.12,0-6.44,0c-2.17-3.84-4.37-7.72-6.59-11.65c-1.92,0-3.78,0-5.99,0
		c-0.79,3.76-1.58,7.56-2.41,11.48c-4.17,0-8.23,0-12.61,0C714.42,743.29,717.32,728.85,720.21,714.41z M728.34,736.92
		c3.72-0.21,6.87-0.32,10-0.62c0.97-0.09,1.98-0.57,2.83-1.09c2.28-1.38,3.36-4.25,2.81-7.09c-0.43-2.23-2.14-3.71-5.13-3.94
		c-2.56-0.2-5.15-0.04-7.9-0.04C730.09,728.34,729.28,732.33,728.34,736.92z"/>
	<path d="M817.34,714.53c-0.66,3.19-1.27,6.19-1.92,9.35c-7.37,0-14.56,0-22.06,0c-0.44,2.36-0.86,4.59-1.35,7.2
		c6.62,0,12.86,0,19.38,0c-0.64,3.27-1.21,6.16-1.82,9.3c-6.46,0-12.79,0-19.46,0c-0.53,2.62-1.03,5.04-1.59,7.82
		c7.69,0,15.14,0,22.97,0c-0.72,3.45-1.35,6.51-2.02,9.73c-11.71,0-23.27,0-34.83,0c-0.35-2.09,6.19-36.35,8.25-43.31
		C784.9,714.07,813.71,713.95,817.34,714.53z"/>
	<path d="M352.79,714.35c11.66,0,22.94,0,34.56,0c-0.66,3.3-1.28,6.37-1.93,9.56c-7.42,0-14.62,0-22.07,0
		c-0.44,2.28-0.86,4.44-1.35,6.97c3.4,0.39,6.54,0.14,9.67,0.19c3.16,0.04,6.32,0.01,9.73,0.01c-0.66,3.31-1.23,6.21-1.85,9.33
		c-6.5,0-12.84,0-19.45,0c-0.52,2.62-1.01,5.04-1.57,7.85c7.74,0,15.18,0,22.95,0c-0.72,3.46-1.37,6.52-2.04,9.71
		c-11.76,0-23.33,0-35.32,0C346.84,743.35,349.91,728.97,352.79,714.35z"/>
	<path d="M653.04,757.94c2.95-14.67,5.85-29.1,8.76-43.61c11.55,0,22.83,0,34.55,0c-0.66,3.27-1.27,6.32-1.93,9.61
		c-7.39,0-14.65,0-22.07,0c-0.47,2.39-0.89,4.55-1.38,7.05c6.48,0,12.7,0,19.37,0c-0.6,3.25-1.12,6.13-1.66,9.07
		c-2.17,0.82-4.33,0.34-6.44,0.43c-2.15,0.08-4.3,0.02-6.46,0.02c-2.14,0-4.28,0-6.7,0c-0.52,2.57-1,4.98-1.57,7.78
		c7.74,0,15.17,0,22.96,0c-0.72,3.46-1.36,6.52-2.02,9.65C676.59,757.94,664.97,757.94,653.04,757.94z"/>
	<path d="M297.12,746.62c-0.82,3.88-1.61,7.59-2.4,11.35c-4.19,0-8.17,0-12.56,0c2.93-14.65,5.81-29.08,8.66-43.33
		c0.44-0.21,0.61-0.36,0.77-0.36c7.39,0.02,14.77,0.05,22.16,0.11c0.65,0,1.3,0.14,1.94,0.29c5.8,1.31,10.37,4.17,11.47,10.42
		c1.19,6.72-0.59,12.64-6.14,17.01c-4.3,3.39-9.39,4.45-14.74,4.5C303.29,746.65,300.31,746.62,297.12,746.62z M301.57,724.09
		c-0.84,4.22-1.66,8.3-2.57,12.87c3.45-0.17,6.51-0.28,9.56-0.5c0.82-0.06,1.65-0.34,2.4-0.69c2.8-1.29,4.14-4.14,3.63-7.49
		c-0.37-2.44-2.24-3.96-5.54-4.17C306.64,723.96,304.21,724.09,301.57,724.09z"/>
	<path d="M262.41,758.02c-4.39,0-8.3,0-12.5,0c-0.61-2.69-1.23-5.39-1.89-8.27c-0.84-0.06-1.66-0.17-2.48-0.17
		c-4.5-0.02-8.99,0.09-13.49-0.05c-1.87-0.06-2.94,0.58-3.76,2.21c-0.87,1.75-1.91,3.44-3.03,5.05c-0.41,0.6-1.24,1.26-1.9,1.28
		c-3.82,0.12-7.64,0.06-11.78,0.06c0.33-0.83,0.48-1.44,0.8-1.94c8.58-13.39,17.2-26.77,25.75-40.18c0.86-1.35,1.82-1.9,3.41-1.86
		c3.35,0.1,6.71,0.03,10.27,0.03C255.35,728.81,258.83,743.22,262.41,758.02z M243.47,727.43c-0.2-0.04-0.41-0.09-0.61-0.13
		c-2.47,4.17-4.94,8.34-7.58,12.78c3.83,0,7.2,0,10.82,0C245.19,735.71,244.33,731.57,243.47,727.43z"/>
	<path d="M994.95,714.21c4.12,0,7.84,0,11.56,0c1.23,0,1.43,0.99,1.77,1.86c1.61,4.08,3.24,8.17,4.86,12.25
		c0.34,0.85,0.72,1.69,1.2,2.81c0.66-0.7,1.18-1.17,1.61-1.71c3.58-4.44,7.21-8.85,10.7-13.36c1.09-1.41,2.26-1.97,4.04-1.9
		c3.23,0.13,6.48,0.04,10.24,0.04c-0.92,1.27-1.47,2.09-2.08,2.86c-6.22,7.84-12.43,15.69-18.7,23.49
		c-1.09,1.35-1.79,2.76-2.08,4.49c-0.59,3.5-1.35,6.97-2.06,10.45c-0.17,0.82-0.39,1.62-0.61,2.52c-4.11,0-8.1,0-12.33,0
		c0.1-0.97,0.13-1.79,0.29-2.59c0.7-3.67,1.35-7.36,2.21-10.99c0.37-1.56,0.18-2.89-0.4-4.33c-3.05-7.54-6.05-15.1-9.05-22.65
		C995.74,716.5,995.43,715.55,994.95,714.21z"/>
	<path d="M458.93,758.01c-4.3,0-8.21,0-12.53,0c1.93-11.33,4.6-22.34,6.55-33.85c-4.49,0-8.66,0-13.28,0
		c0.69-3.44,1.3-6.51,1.9-9.51c2.33-0.62,36.74-0.66,39.48-0.01c-0.62,3.06-1.24,6.14-1.91,9.43c-4.43,0-8.71,0-13.33,0
		c-1.19,5.81-2.34,11.44-3.48,17.07C461.19,746.72,460.08,752.3,458.93,758.01z"/>
	<path d="M958.64,758.01c-4.3,0-8.2,0-12.52,0c1.93-11.33,4.6-22.34,6.55-33.85c-4.5,0-8.67,0-13.28,0c0.69-3.44,1.3-6.51,1.99-9.97
		c13.07-0.02,26.1-0.01,39.49-0.01c-0.72,3.52-1.34,6.6-2.01,9.89c-4.44,0-8.71,0-13.34,0
		C963.21,735.46,960.94,746.67,958.64,758.01z"/>
	<path d="M908.21,714.38c4.27,0,8.33,0,12.66,0c-2.94,14.69-5.84,29.14-8.73,43.61c-4.27,0-8.26,0-12.65,0
		C902.41,743.34,905.3,728.91,908.21,714.38z"/>
</g>
</svg>
